<?xml version="1.0" encoding="utf-8"?>
<!-- Generator: Adobe Illustrator 24.0.0, SVG Export Plug-In . SVG Version: 6.00 Build 0)  -->
<svg version="1.0" id="Layer_1" xmlns="http://www.w3.org/2000/svg" xmlns:xlink="http://www.w3.org/1999/xlink" x="0px" y="0px"
	 viewBox="0 0 584 200" style="enable-background:new 0 0 584 200;" xml:space="preserve">
<style type="text/css">
	.st0{fill:#FFFFFF;}
</style>
<g>
	<path class="st0" d="M231.4,101.6c4.5,0,8.9,1.7,12.2,4.7c2.2,2,5.5,1.8,7.5-0.3c2-2.2,1.8-5.5-0.3-7.5c-5.3-4.9-12.2-7.5-19.4-7.5
		c-15.9,0-28.8,13-28.8,28.9s12.9,28.9,28.8,28.9c7.1,0,13.9-2.6,19.2-7.4c2.2-2,2.4-5.3,0.4-7.5c-2-2.2-5.3-2.4-7.5-0.4
		c-3.3,3-7.6,4.7-12.1,4.7c-10,0-18.2-8.2-18.2-18.3S221.4,101.6,231.4,101.6z"/>
	<path class="st0" d="M188.4,93.3c-2.9,0-5.3,2.4-5.3,5.3v2.4v21.3c0,8.8-7.2,15.9-15.9,15.9s-15.9-7.2-15.9-15.9V98.6
		c0-2.9-2.4-5.3-5.3-5.3s-5.3,2.4-5.3,5.3v23.6c0,14.7,11.9,26.6,26.6,26.6c6.2,0,11.8-2.1,16.3-5.6c0.8,1.9,2.7,3.3,4.9,3.3
		c2.9,0,5.3-2.4,5.3-5.3v-18.9V101v-2.4C193.8,95.7,191.4,93.3,188.4,93.3z"/>
	<path class="st0" d="M298.1,93.3c-3.5-1.6-7.2-2.4-11-2.4c-6.2,0-11.9,2.1-16.4,5.7c-0.8-1.9-2.7-3.3-4.9-3.3
		c-2.9,0-5.3,2.4-5.3,5.3v18.9v21.3v2.4c0,2.9,2.4,5.3,5.3,5.3c2.9,0,5.3-2.4,5.3-5.3v-2.4v-21.3c0-8.8,7.2-15.9,16-15.9
		c2.3,0,4.5,0.5,6.6,1.4c2.7,1.2,5.8,0,7-2.7C302,97.6,300.8,94.5,298.1,93.3z"/>
	<path class="st0" d="M331.4,90.9c-16,0-28.9,13-28.9,28.9s13,28.9,28.9,28.9c7,0,13.4-2.5,18.4-6.6c0.5,2.4,2.6,4.3,5.2,4.3
		c2.9,0,5.3-2.4,5.3-5.3v-20.7c0-0.1,0-0.1,0-0.2c0-0.1,0-0.3,0-0.4C360.3,103.9,347.3,90.9,331.4,90.9z M331.4,138.2
		c-10.1,0-18.3-8.2-18.3-18.3s8.2-18.3,18.3-18.3s18.3,8.2,18.3,18.3S341.5,138.2,331.4,138.2z"/>
	<path class="st0" d="M437.7,138.3c-6.8,0-12.4-5.6-12.4-12.4V92.1h10c2.9,0,5.3-2.4,5.3-5.3s-2.4-5.3-5.3-5.3h-10V59
		c0-2.9-2.4-5.3-5.3-5.3c-2.9,0-5.3,2.4-5.3,5.3v22.4h-4.1h-27.2v-7.7c0-6.8,5.6-12.4,12.4-12.4c2.9,0,5.3-2.4,5.3-5.3
		c0-2.9-2.4-5.3-5.3-5.3c-12.7,0-23,10.3-23,23v7.7h-6.5c-2.9,0-5.3,2.4-5.3,5.3s2.4,5.3,5.3,5.3h6.5v49.1c0,2.9,2.4,5.3,5.3,5.3
		c2.9,0,5.3-2.4,5.3-5.3V92.1h27.2h4.1v33.7c0,12.7,10.3,23,23,23c2.9,0,5.3-2.4,5.3-5.3C443,140.6,440.6,138.3,437.7,138.3z"/>
</g>
<g>
</g>
<g>
</g>
<g>
</g>
<g>
</g>
<g>
</g>
<g>
</g>
<g>
</g>
<g>
</g>
<g>
</g>
<g>
</g>
<g>
</g>
<g>
</g>
<g>
</g>
<g>
</g>
<g>
</g>
</svg>
